<?xml version="1.0" encoding="utf-8"?>
<!-- Generator: Adobe Illustrator 24.2.1, SVG Export Plug-In . SVG Version: 6.00 Build 0)  -->
<svg version="1.1" id="Layer_2_1_" xmlns="http://www.w3.org/2000/svg" xmlns:xlink="http://www.w3.org/1999/xlink" x="0px" y="0px"
	 viewBox="0 0 212.3 37.9" style="enable-background:new 0 0 212.3 37.9;" xml:space="preserve">
<style type="text/css">
	.st0{fill:#F1F1F8;}
	.st1{font-family:'Verdana';}
	.st2{font-size:35px;}
	.st3{fill:#00A99D;}
	.st4{fill:#0071BC;}
	.st5{fill:#29ABE2;}
	.st6{fill:#FF0000;}
</style>
<text transform="matrix(1 0 0 1 46.8002 31.9004)" class="st0 st1 st2">Celestials</text>
<g>
	<path class="st3" d="M23.3,22.3c-0.4,1-1.1,1.7-1.9,2.2c-0.8,0.5-1.7,0.8-2.8,0.8c-1.5,0-2.8-0.6-3.7-1.7c-0.9-1.2-1.3-2.7-1.3-4.7
		c0-2,0.4-3.5,1.3-4.7c0.9-1.2,2.1-1.7,3.7-1.7c1,0,2,0.3,2.8,0.8c0.8,0.5,1.4,1.3,1.9,2.2H33c-0.4-2.3-1.2-4.3-2.5-6.1
		c-1.3-1.7-2.9-3.1-4.9-4c-2-0.9-4.3-1.4-6.8-1.4c-2.9,0-5.5,0.6-7.7,1.9c-2.2,1.3-3.8,3-5,5.3c-1.2,2.3-1.8,4.8-1.8,7.7
		s0.6,5.5,1.8,7.7c0.9,1.8,2.1,3.2,3.7,4.4c0.4,0.3,0.9,0.6,1.4,0.9c1.2,0.7,2.5,1.2,4,1.5c1.2,0.3,2.4,0.4,3.7,0.4
		c2.5,0,4.8-0.5,6.8-1.4c2-0.9,3.6-2.3,4.9-4c1.3-1.7,2.1-3.8,2.5-6.1H23.3z"/>
</g>
<path class="st4" d="M27.1,15.6c-1.3-3.3-4.5-5.6-8.3-5.6c-4.9,0-8.9,4-8.9,8.9v11.3c0,0.3,0,0.5,0.1,0.7c0.4,0.3,0.9,0.6,1.4,0.9
	c1.2,0.7,2.5,1.2,4,1.5v-6.3c1.1,0.5,2.3,0.7,3.6,0.7c3.8,0,7-2.3,8.3-5.6c0.4-1,0.6-2.2,0.6-3.3C27.8,17.8,27.6,16.6,27.1,15.6z
	 M18.8,22.5c-2,0-3.6-1.6-3.6-3.6s1.6-3.6,3.6-3.6s3.6,1.6,3.6,3.6S20.8,22.5,18.8,22.5z"/>
<path class="st5" d="M18.7,37.9c-0.1,0-0.2,0-0.4,0c-1,0-2-0.1-2.9-0.3c-0.2,0-0.4-0.1-0.5-0.3c-0.1-0.2-0.2-0.3-0.1-0.5
	c0.1-0.3,0.4-0.6,0.7-0.6c0,0,0.1,0,0.1,0c0.9,0.2,1.8,0.2,2.7,0.3c0.1,0,0.2,0,0.3,0c1,0,2.1-0.1,3.1-0.3c0,0,0.1,0,0.1,0
	c0.3,0,0.6,0.2,0.7,0.6c0,0.2,0,0.4-0.1,0.5c-0.1,0.2-0.3,0.3-0.5,0.3C20.9,37.8,19.8,37.9,18.7,37.9z M24.6,36.9
	c-0.3,0-0.6-0.2-0.7-0.5c-0.1-0.2-0.1-0.4,0-0.5c0.1-0.2,0.2-0.3,0.4-0.4c0,0,0,0,0,0c0.1,0,0.2,0,0.2,0c0.3,0,0.6,0.2,0.7,0.5
	c0.1,0.4-0.1,0.8-0.4,0.9c0,0,0,0,0,0C24.8,36.9,24.7,36.9,24.6,36.9z M12.1,36.7c-0.1,0-0.2,0-0.3,0c-0.2-0.1-0.3-0.2-0.4-0.4
	c-0.1-0.2-0.1-0.4,0-0.5c0.1-0.3,0.4-0.5,0.7-0.5c0.1,0,0.2,0,0.3,0c0.4,0.1,0.6,0.6,0.4,0.9C12.7,36.5,12.4,36.7,12.1,36.7z
	 M9.6,35.5L9.6,35.5c-0.1,0-0.2,0-0.4-0.1c-1.1-0.6-2.1-1.3-3-2.1c-0.7-0.6-1.4-1.3-2.1-2.1c-0.3-0.3-0.2-0.8,0.1-1
	C4.4,30,4.6,30,4.7,30c0.2,0,0.4,0.1,0.5,0.3c0.6,0.7,1.2,1.3,1.9,1.9c0.9,0.7,1.8,1.4,2.8,2c0.3,0.2,0.5,0.6,0.3,1
	C10.1,35.3,9.8,35.5,9.6,35.5z M27.8,35.5L27.8,35.5c-0.3,0-0.5-0.1-0.6-0.4c-0.2-0.3-0.1-0.8,0.3-1c0.8-0.5,1.5-1,2.2-1.5
	c0.9-0.7,1.7-1.5,2.4-2.4c0,0,0,0,0,0c0.1-0.2,0.3-0.3,0.5-0.3c0.2,0,0.3,0.1,0.5,0.2c0.3,0.3,0.3,0.7,0.1,1
	c-0.8,0.9-1.7,1.8-2.6,2.6c-0.8,0.6-1.6,1.2-2.4,1.7C28.1,35.4,27.9,35.5,27.8,35.5z M34.3,29.1c-0.1,0-0.3,0-0.4-0.1
	c-0.2-0.1-0.3-0.3-0.3-0.4c0-0.2,0-0.4,0.1-0.5c0.1-0.2,0.4-0.3,0.6-0.3c0.1,0,0.3,0,0.4,0.1c0.2,0.1,0.3,0.3,0.3,0.4
	c0,0.2,0,0.4-0.1,0.5c0,0,0,0,0,0C34.8,29,34.6,29.1,34.3,29.1z M2.7,28.5c-0.3,0-0.5-0.1-0.6-0.4C2,28,2,27.8,2,27.6
	c0.1-0.2,0.2-0.3,0.3-0.4c0.1-0.1,0.2-0.1,0.3-0.1c0.3,0,0.5,0.1,0.6,0.4c0.2,0.3,0.1,0.8-0.3,1C3,28.5,2.9,28.5,2.7,28.5z
	 M1.6,25.9c-0.3,0-0.6-0.2-0.7-0.5c-0.4-1.1-0.7-2.3-0.9-3.5l0,0c-0.1-1-0.2-1.9-0.2-2.9c0-0.4,0.3-0.7,0.7-0.7
	c0.4,0,0.7,0.3,0.7,0.7c0,0.9,0.1,1.8,0.2,2.7c0.2,1.1,0.5,2.2,0.8,3.3c0.1,0.4-0.1,0.8-0.4,0.9C1.7,25.9,1.6,25.9,1.6,25.9z
	 M35.8,25.9c-0.1,0-0.2,0-0.2,0c-0.4-0.1-0.6-0.5-0.4-0.9c0.3-0.8,0.6-1.7,0.7-2.6c0.2-1.1,0.3-2.2,0.3-3.4v0c0-0.2,0.1-0.4,0.2-0.5
	c0.1-0.1,0.3-0.2,0.5-0.2c0.4,0,0.7,0.3,0.7,0.7v0c0,1.2-0.1,2.5-0.4,3.7c-0.2,1-0.5,1.9-0.8,2.8C36.4,25.7,36.1,25.9,35.8,25.9z
	 M36.7,16.8c-0.4,0-0.7-0.3-0.7-0.6c0-0.2,0-0.4,0.1-0.5c0.1-0.2,0.3-0.3,0.5-0.3c0,0,0.1,0,0.1,0c0.4,0,0.7,0.3,0.7,0.6
	c0,0.2,0,0.4-0.1,0.5c-0.1,0.2-0.3,0.3-0.5,0.3C36.8,16.8,36.8,16.8,36.7,16.8z M0.8,16.2c0,0-0.1,0-0.1,0c-0.4-0.1-0.6-0.5-0.6-0.8
	c0.1-0.3,0.4-0.6,0.7-0.6c0,0,0.1,0,0.1,0c0.2,0,0.3,0.1,0.5,0.3c0.1,0.2,0.1,0.3,0.1,0.5C1.4,15.9,1.1,16.2,0.8,16.2z M1.6,13.4
	c-0.1,0-0.2,0-0.2,0c-0.4-0.1-0.6-0.5-0.4-0.9c0.4-1.1,0.9-2.3,1.6-3.3C3,8.3,3.5,7.5,4.2,6.8c0.1-0.2,0.3-0.3,0.5-0.3
	c0.2,0,0.3,0.1,0.5,0.2C5.3,6.8,5.4,7,5.4,7.2c0,0.2,0,0.4-0.2,0.5C4.7,8.4,4.2,9.1,3.7,9.9c-0.6,1-1.1,2-1.5,3.1
	C2.1,13.3,1.9,13.4,1.6,13.4z M35.8,13.4c-0.3,0-0.6-0.2-0.7-0.5c-0.3-0.8-0.7-1.7-1.1-2.5c-0.5-1-1.2-1.9-1.9-2.8
	c-0.1-0.1-0.2-0.3-0.2-0.5c0-0.2,0.1-0.4,0.3-0.5c0.1-0.1,0.3-0.2,0.5-0.2c0.2,0,0.4,0.1,0.5,0.3c0.8,0.9,1.5,2,2.1,3
	c0.5,0.9,0.9,1.8,1.2,2.7c0.1,0.4-0.1,0.8-0.4,0.9C36,13.4,35.9,13.4,35.8,13.4z M30.7,5.9c-0.2,0-0.3-0.1-0.5-0.2c0,0,0,0,0,0
	C30.1,5.6,30,5.4,30,5.2c0-0.2,0-0.4,0.2-0.5c0.1-0.2,0.3-0.2,0.5-0.2c0.2,0,0.3,0.1,0.5,0.2c0,0,0,0,0,0c0.3,0.3,0.3,0.7,0.1,1
	C31.1,5.8,30.9,5.9,30.7,5.9z M7.2,5.5C7,5.5,6.8,5.4,6.7,5.2c-0.2-0.3-0.2-0.8,0.1-1c0.1-0.1,0.3-0.2,0.4-0.2
	c0.2,0,0.4,0.1,0.6,0.3C8,4.6,8,5.1,7.7,5.3C7.6,5.4,7.4,5.5,7.2,5.5z M9.6,3.9c-0.3,0-0.5-0.1-0.6-0.4c-0.2-0.3-0.1-0.8,0.3-1
	c1.1-0.6,2.2-1.1,3.3-1.5l0,0c0.9-0.3,1.9-0.6,2.8-0.7c0,0,0.1,0,0.1,0c0.3,0,0.6,0.2,0.7,0.6c0,0.2,0,0.4-0.1,0.5
	c-0.1,0.2-0.3,0.3-0.5,0.3c-0.9,0.2-1.8,0.4-2.6,0.7c-1.1,0.4-2.1,0.8-3.1,1.4c0,0,0,0,0,0C9.8,3.8,9.7,3.9,9.6,3.9z M27.8,3.9
	c-0.1,0-0.2,0-0.4-0.1c-0.8-0.5-1.6-0.8-2.5-1.2c-1.1-0.4-2.2-0.7-3.3-0.9c0,0,0,0,0,0c-0.4-0.1-0.6-0.4-0.6-0.8
	c0.1-0.3,0.4-0.6,0.7-0.6c0,0,0.1,0,0.1,0c1.2,0.2,2.4,0.5,3.5,1c0.9,0.4,1.8,0.8,2.7,1.3c0.2,0.1,0.3,0.2,0.3,0.4
	c0,0.2,0,0.4-0.1,0.5C28.3,3.7,28,3.9,27.8,3.9z M19,1.4C19,1.4,19,1.4,19,1.4L19,1.4c-0.2,0-0.4-0.1-0.5-0.2
	c-0.1-0.1-0.2-0.3-0.2-0.5C18.3,0.3,18.6,0,19,0c0,0,0,0,0,0c0.4,0,0.7,0.3,0.7,0.7C19.7,1.1,19.4,1.4,19,1.4z"/>
<polygon class="st6" points="21.1,18.3 21.1,19.4 19.2,19.4 19.2,21.2 18.1,21.2 18.1,19.4 16.4,19.4 16.4,18.3 18.1,18.3 
	18.1,16.5 19.2,16.5 19.2,18.3 "/>
</svg>
